<?xml version="1.0" standalone="no"?>
<!DOCTYPE svg PUBLIC "-//W3C//DTD SVG 20010904//EN"
 "http://www.w3.org/TR/2001/REC-SVG-20010904/DTD/svg10.dtd">
<svg version="1.0" xmlns="http://www.w3.org/2000/svg"
 width="512.000000pt" height="512.000000pt" viewBox="0 0 512.000000 512.000000"
 preserveAspectRatio="xMidYMid meet">

<g transform="translate(0.000000,512.000000) scale(0.100000,-0.100000)"
fill="#000000" stroke="none">
<path d="M2285 4675 c-811 -106 -1495 -672 -1749 -1446 -75 -228 -106 -422
-106 -667 0 -578 216 -1100 624 -1508 308 -308 688 -509 1113 -590 170 -32
459 -43 623 -25 745 86 1383 542 1701 1217 272 576 266 1263 -15 1839 -321
655 -959 1106 -1678 1184 -128 14 -388 12 -513 -4z m465 -205 c578 -60 1094
-372 1413 -854 420 -636 420 -1473 0 -2111 -56 -85 -176 -237 -192 -243 -4 -1
-21 28 -36 65 -153 365 -478 678 -847 817 l-58 22 50 38 c208 159 330 410 330
679 -1 234 -83 431 -249 598 -91 90 -179 149 -286 190 -128 50 -202 62 -350
56 -111 -4 -144 -9 -225 -35 -267 -88 -469 -293 -555 -562 -35 -109 -45 -305
-22 -415 43 -204 164 -398 319 -511 l50 -37 -79 -32 c-372 -151 -676 -446
-823 -798 -18 -43 -36 -76 -41 -75 -16 6 -137 159 -196 249 -577 881 -329
2072 552 2652 113 74 322 177 441 216 255 85 546 118 804 91z m-55 -965 c287
-60 505 -329 505 -625 0 -236 -140 -463 -350 -568 -110 -55 -207 -76 -325 -69
-167 10 -298 70 -421 193 -247 246 -244 645 5 895 156 155 370 219 586 174z
m99 -1501 c316 -60 597 -235 792 -493 68 -91 160 -267 190 -364 l18 -58 -30
-25 c-75 -62 -261 -178 -374 -233 -526 -254 -1131 -254 -1660 0 -112 54 -295
168 -374 234 l-30 24 18 58 c30 97 122 273 190 364 222 294 556 479 926 513
73 6 249 -4 334 -20z"/>
</g>
</svg>
