<?xml version="1.0" standalone="no"?>
<!DOCTYPE svg PUBLIC "-//W3C//DTD SVG 20010904//EN"
 "http://www.w3.org/TR/2001/REC-SVG-20010904/DTD/svg10.dtd">
<svg version="1.0" xmlns="http://www.w3.org/2000/svg"
 width="500.000000pt" height="210.000000pt" viewBox="0 0 500.000000 210.000000"
 preserveAspectRatio="xMidYMid meet">

<g transform="translate(0.000000,210.000000) scale(0.100000,-0.100000)"
fill="rgb(255,255,255)" stroke="none">
<path d="M550 1955 c-194 -39 -328 -143 -391 -303 -19 -48 -23 -77 -23 -187
-1 -125 0 -132 30 -195 78 -164 215 -244 507 -295 162 -29 218 -45 300 -88
114 -60 161 -148 160 -297 -1 -192 -104 -312 -301 -350 -87 -18 -232 -8 -304
20 -74 27 -159 104 -193 173 -27 57 -55 170 -55 230 l0 37 -85 0 -85 0 0 -62
c1 -216 113 -415 280 -496 102 -50 178 -65 320 -65 213 0 346 47 461 162 108
109 144 212 137 395 -5 129 -27 198 -88 274 -83 105 -213 164 -474 211 -91 17
-195 43 -231 57 -76 30 -147 90 -177 148 -27 52 -37 194 -18 262 26 94 103
165 221 204 55 19 81 21 190 18 121 -3 129 -4 195 -38 116 -60 167 -152 187
-342 l11 -108 85 0 84 0 -6 113 c-10 183 -54 301 -146 392 -120 120 -370 174
-591 130z"/>
<path d="M4220 1511 c-55 -17 -110 -52 -148 -96 -70 -79 -72 -94 -72 -482 l0
-343 40 0 40 0 0 315 c0 181 4 335 10 363 13 59 57 114 113 145 40 21 56 22
300 25 l257 3 0 40 0 39 -257 -1 c-142 0 -269 -4 -283 -8z"/>
<path d="M1945 1370 c-167 -33 -292 -140 -354 -300 -42 -107 -53 -185 -53
-350 1 -211 26 -316 108 -440 91 -140 220 -203 414 -203 158 0 259 34 351 120
77 72 136 214 127 305 l-3 33 -76 3 -76 3 -7 -53 c-14 -103 -69 -188 -147
-229 -91 -46 -247 -43 -339 7 -110 60 -161 162 -180 362 -19 192 15 384 84
475 68 90 189 138 314 123 156 -18 246 -113 267 -279 l7 -57 79 0 79 0 0 45
c0 164 -93 321 -230 388 -100 49 -255 69 -365 47z"/>
<path d="M3121 1364 c-188 -40 -294 -161 -308 -351 l-6 -73 80 0 80 0 7 62
c13 129 80 205 201 228 84 16 172 7 240 -24 58 -26 91 -66 111 -132 15 -49 30
-194 21 -194 -27 0 -462 -74 -498 -84 -88 -27 -157 -66 -203 -117 -62 -69 -81
-129 -81 -254 0 -86 4 -108 26 -155 14 -31 41 -72 58 -93 68 -77 205 -116 347
-98 141 18 229 57 320 143 l51 48 7 -62 c13 -113 8 -108 88 -108 l71 0 -6 68
c-4 37 -9 240 -12 452 -6 394 -12 468 -45 546 -28 65 -100 137 -168 167 -103
46 -255 59 -381 31z m429 -778 l0 -174 -51 -56 c-87 -95 -214 -143 -356 -134
-93 6 -155 41 -191 108 -21 39 -23 55 -20 125 4 71 8 86 36 127 52 75 116 101
362 142 113 19 208 35 213 35 4 1 7 -77 7 -173z"/>
<path d="M4360 1341 c0 -5 12 -24 26 -41 77 -91 224 -98 307 -14 65 66 69 64
-143 64 -109 0 -190 -4 -190 -9z"/>
<path d="M3916 473 c-2 -15 -7 -68 -11 -118 -3 -49 -8 -114 -12 -143 l-5 -52
-44 0 -44 0 0 -40 0 -40 240 0 240 0 0 40 0 40 -40 0 c-24 0 -42 5 -45 13 -2
6 -10 82 -17 167 l-13 155 -122 3 -121 3 -6 -28z"/>
</g>
</svg>
